<svg xmlns="http://www.w3.org/2000/svg" width="3000" height="717" viewBox="0 0 3000 717" fill="none">
<g clip-path="url(#clip0_1_2309)">
<path d="M191.904 153.731H193.992C212.776 153.731 227.983 168.938 227.983 187.722C227.983 206.507 212.776 221.714 193.992 221.714C175.207 221.714 160 206.507 160 187.722V185.635C160 168.043 174.312 153.731 191.904 153.731Z" fill="#F05023"/>
<path d="M343.382 187.722C343.382 168.949 328.163 153.731 309.39 153.731C290.617 153.731 275.398 168.949 275.398 187.722C275.398 206.496 290.617 221.714 309.39 221.714C328.163 221.714 343.382 206.496 343.382 187.722Z" fill="#F05023"/>
<path d="M227.983 301.614C227.983 282.841 212.765 267.623 193.992 267.623C175.219 267.623 160 282.841 160 301.614C160 320.387 175.219 335.606 193.992 335.606C212.765 335.606 227.983 320.387 227.983 301.614Z" fill="#F05023"/>
<path d="M343.382 301.614C343.382 282.841 328.163 267.623 309.39 267.623C290.617 267.623 275.398 282.841 275.398 301.614C275.398 320.387 290.617 335.606 309.39 335.606C328.163 335.606 343.382 320.387 343.382 301.614Z" fill="#F05023"/>
<path d="M458.921 187.722C458.921 168.949 443.702 153.731 424.929 153.731C406.156 153.731 390.938 168.949 390.938 187.722C390.938 206.496 406.156 221.714 424.929 221.714C443.702 221.714 458.921 206.496 458.921 187.722Z" fill="#F05023"/>
<path d="M458.921 301.614C458.921 282.841 443.702 267.623 424.929 267.623C406.156 267.623 390.938 282.841 390.938 301.614C390.938 320.387 406.156 335.606 424.929 335.606C443.702 335.606 458.921 320.387 458.921 301.614Z" fill="#F05023"/>
<path d="M227.983 415.372C227.983 396.599 212.765 381.381 193.992 381.381C175.219 381.381 160 396.599 160 415.372C160 434.145 175.219 449.364 193.992 449.364C212.765 449.364 227.983 434.145 227.983 415.372Z" fill="#F05023"/>
<path d="M343.382 415.372C343.382 396.599 328.163 381.381 309.39 381.381C290.617 381.381 275.398 396.599 275.398 415.372C275.398 434.145 290.617 449.364 309.39 449.364C328.163 449.364 343.382 434.145 343.382 415.372Z" fill="#F05023"/>
<path d="M458.921 415.372C458.921 396.599 443.702 381.381 424.929 381.381C406.156 381.381 390.938 396.599 390.938 415.372C390.938 434.145 406.156 449.364 424.929 449.364C443.702 449.364 458.921 434.145 458.921 415.372Z" fill="#F05023"/>
<path d="M227.983 529.274C227.983 510.501 212.765 495.283 193.992 495.283C175.219 495.283 160 510.501 160 529.274C160 548.048 175.219 563.266 193.992 563.266C212.765 563.266 227.983 548.048 227.983 529.274Z" fill="#F05023"/>
<path d="M343.382 529.274C343.382 510.501 328.163 495.283 309.39 495.283C290.617 495.283 275.398 510.501 275.398 529.274C275.398 548.048 290.617 563.266 309.39 563.266C328.163 563.266 343.382 548.048 343.382 529.274Z" fill="#F05023"/>
<path d="M458.921 529.274C458.921 510.501 443.702 495.283 424.929 495.283C406.156 495.283 390.938 510.501 390.938 529.274C390.938 548.048 406.156 563.266 424.929 563.266C443.702 563.266 458.921 548.048 458.921 529.274Z" fill="#F05023"/>
<path d="M574.319 187.722C574.319 168.949 559.101 153.731 540.328 153.731C521.555 153.731 506.336 168.949 506.336 187.722C506.336 206.496 521.555 221.714 540.328 221.714C559.101 221.714 574.319 206.496 574.319 187.722Z" fill="#F05023"/>
<path d="M574.319 301.614C574.319 282.841 559.101 267.623 540.328 267.623C521.555 267.623 506.336 282.841 506.336 301.614C506.336 320.387 521.555 335.606 540.328 335.606C559.101 335.606 574.319 320.387 574.319 301.614Z" fill="#F05023"/>
<path d="M574.319 415.372C574.319 396.599 559.101 381.381 540.328 381.381C521.555 381.381 506.336 396.599 506.336 415.372C506.336 434.145 521.555 449.364 540.328 449.364C559.101 449.364 574.319 434.145 574.319 415.372Z" fill="#F05023"/>
<path d="M574.319 529.274C574.319 510.501 559.101 495.283 540.328 495.283C521.555 495.283 506.336 510.501 506.336 529.274C506.336 548.048 521.555 563.266 540.328 563.266C559.101 563.266 574.319 548.048 574.319 529.274Z" fill="#F05023"/>
<path d="M404.947 301.616H329.211C318.26 301.616 309.383 310.494 309.383 321.445V395.689C309.383 406.64 318.26 415.518 329.211 415.518H404.947C415.898 415.518 424.775 406.64 424.775 395.689V321.445C424.775 310.494 415.898 301.616 404.947 301.616Z" fill="#F05023"/>
<path d="M404.953 430.288H329.218C309.985 430.288 294.48 414.634 294.48 395.551V321.456C294.48 302.224 310.135 286.719 329.218 286.719H404.953C424.185 286.719 439.69 302.373 439.69 321.456V395.551C439.69 414.783 424.036 430.288 404.953 430.288ZM329.367 316.536C326.683 316.536 324.447 318.772 324.447 321.456V395.551C324.447 398.235 326.683 400.471 329.367 400.471H405.102C407.786 400.471 410.022 398.235 410.022 395.551V321.456C410.022 318.772 407.786 316.536 405.102 316.536H329.367Z" fill="#F05023"/>
<path d="M794.66 462.781C777.246 452.359 763.79 438.244 754.292 420.435C744.794 402.493 740.045 382.705 740.045 361.071C740.045 339.436 744.794 319.648 754.292 301.707C763.79 283.766 777.246 269.65 794.66 259.36C812.073 249.071 832.389 243.794 855.607 243.794C874.603 243.794 892.017 247.356 907.979 254.611C923.941 261.867 936.869 272.025 947.027 285.085C957.053 298.145 962.858 313.316 964.441 330.465H908.902C907.055 319.384 901.251 310.149 891.489 302.762C881.727 295.374 870.25 291.681 856.926 291.681C837.929 291.681 823.286 298.145 812.997 311.073C802.575 324.001 797.43 340.623 797.43 361.071C797.43 381.518 802.707 398.272 813.26 411.068C823.814 423.996 838.589 430.46 857.454 430.46C870.646 430.46 881.991 427.03 891.225 420.303C900.591 413.575 906.66 404.472 909.694 392.995H965.232C963.121 409.485 957.053 424.26 947.027 437.188C937.001 450.116 924.073 460.142 908.243 467.398C892.412 474.654 874.867 478.215 855.739 478.215C832.521 478.215 812.337 473.071 794.792 462.649L794.66 462.781Z" fill="#fffefe"/>
<path d="M1039.12 463.307C1021.05 453.282 1006.94 439.298 996.777 421.357C986.488 403.416 981.475 383.364 981.475 361.201C981.475 339.039 986.619 318.855 996.777 301.046C1006.94 283.105 1021.18 269.121 1039.12 259.096C1057.2 249.07 1077.64 244.057 1100.47 244.057C1123.29 244.057 1143.34 249.07 1161.41 259.096C1179.49 269.253 1193.6 283.105 1203.76 301.046C1213.92 318.987 1219.06 339.039 1219.06 361.201C1219.06 383.364 1213.92 403.548 1203.76 421.357C1193.47 439.298 1179.35 453.282 1161.41 463.307C1143.34 473.333 1123.02 478.478 1100.47 478.478C1077.91 478.478 1057.2 473.465 1039.12 463.307ZM1145.85 411.199C1157.46 398.271 1163.26 381.649 1163.26 361.201C1163.26 340.754 1157.46 324.132 1145.85 311.204C1134.24 298.276 1119.2 291.812 1100.47 291.812C1081.73 291.812 1066.3 298.144 1054.69 310.94C1043.08 323.736 1037.28 340.49 1037.28 361.201C1037.28 381.913 1043.08 398.403 1054.69 411.199C1066.3 424.127 1081.6 430.591 1100.47 430.591C1119.33 430.591 1134.24 424.127 1145.85 411.199Z" fill="#fffefe"/>
<path d="M1250.18 247.488H1305.72V282.182C1311.39 270.442 1320.1 261.075 1331.71 254.215C1343.32 247.224 1356.9 243.794 1372.47 243.794C1388.96 243.794 1403.6 247.751 1416.27 255.535C1428.93 263.318 1437.64 274.003 1442.39 287.591C1448.06 274.927 1458.09 264.505 1472.2 256.194C1486.32 248.015 1501.49 243.794 1517.72 243.794C1542.12 243.794 1561.64 251.577 1576.42 267.276C1591.19 282.974 1598.45 303.026 1598.45 327.695V474.785H1542.91V344.449C1542.91 328.223 1539.09 315.294 1531.43 305.664C1523.78 296.034 1513.23 291.285 1499.64 291.285C1485.26 291.285 1473.65 296.826 1464.95 308.039C1456.24 319.252 1451.89 332.972 1451.89 349.594V475.049H1396.88V344.712C1396.88 328.486 1392.92 315.558 1385.14 305.928C1377.35 296.298 1366.8 291.549 1353.61 291.549C1339.23 291.549 1327.62 297.089 1318.91 308.303C1310.21 319.516 1305.85 333.235 1305.85 349.857V475.313H1250.31V247.488H1250.18Z" fill="#fffefe"/>
<path d="M1640.4 247.487H1695.94V275.058C1702.8 265.428 1712.43 257.909 1724.57 252.236C1736.7 246.696 1749.89 243.925 1764.01 243.925C1785.64 243.925 1804.51 248.938 1820.34 258.832C1836.3 268.726 1848.44 282.578 1856.88 300.255C1865.32 318.064 1869.55 338.248 1869.55 361.202C1869.55 384.156 1865.32 404.34 1856.88 422.149C1848.44 439.958 1836.3 453.678 1820.6 463.704C1804.77 473.598 1786.3 478.611 1764.93 478.611C1750.55 478.611 1737.1 475.708 1724.83 470.036C1712.43 464.363 1702.8 456.448 1695.94 446.554V566.997H1640.4V247.487ZM1797.78 411.595C1808.86 398.931 1814.53 382.177 1814.53 361.07C1814.53 339.963 1808.99 323.209 1797.78 310.545C1786.7 297.88 1771.92 291.548 1753.59 291.548C1735.25 291.548 1720.08 297.88 1708.87 310.545C1697.65 323.209 1692.24 339.963 1692.24 361.07C1692.24 382.177 1697.79 398.931 1708.87 411.595C1719.95 424.26 1734.86 430.592 1753.59 430.592C1772.32 430.592 1786.7 424.26 1797.78 411.595Z" fill="#fffefe"/>
<path d="M1945.79 463.307C1927.72 453.282 1913.6 439.298 1903.45 421.357C1893.16 403.416 1888.14 383.364 1888.14 361.201C1888.14 339.039 1893.29 318.855 1903.45 301.046C1913.6 283.105 1927.85 269.121 1945.79 259.096C1963.86 249.07 1984.31 244.057 2007.13 244.057C2029.96 244.057 2050.01 249.07 2068.08 259.096C2086.15 269.253 2100.27 283.105 2110.43 301.046C2120.59 318.987 2125.73 339.039 2125.73 361.201C2125.73 383.364 2120.59 403.548 2110.43 421.357C2100.14 439.298 2086.02 453.282 2068.08 463.307C2050.01 473.333 2029.69 478.478 2007.13 478.478C1984.58 478.478 1963.86 473.465 1945.79 463.307ZM2052.51 411.199C2064.12 398.271 2069.93 381.649 2069.93 361.201C2069.93 340.754 2064.12 324.132 2052.51 311.204C2040.91 298.276 2025.87 291.812 2007.13 291.812C1988.4 291.812 1972.97 298.144 1961.36 310.94C1949.75 323.736 1943.94 340.49 1943.94 361.201C1943.94 381.913 1949.75 398.403 1961.36 411.199C1972.97 424.127 1988.27 430.591 2007.13 430.591C2026 430.591 2040.91 424.127 2052.51 411.199Z" fill="#fffefe"/>
<path d="M2169.26 457.636C2152.9 443.784 2143.8 424.392 2141.96 399.459H2190.63C2191.82 410.54 2196.44 419.379 2204.35 425.843C2212.27 432.307 2222.82 435.605 2235.75 435.605C2247.23 435.605 2256.33 433.231 2263.19 428.35C2270.05 423.601 2273.61 416.873 2273.61 408.562C2273.61 399.591 2269.79 393.259 2262.13 389.565C2254.48 385.871 2242.35 382.573 2225.86 379.671C2209.89 376.901 2196.7 373.735 2186.41 370.173C2175.99 366.611 2167.15 360.279 2159.63 351.177C2152.11 342.206 2148.42 329.41 2148.42 312.788C2148.42 292.34 2156.07 275.718 2171.37 262.922C2186.68 250.126 2206.2 243.794 2230.08 243.794C2257.39 243.794 2279.15 250.258 2294.98 263.186C2310.81 276.114 2319.65 293.791 2321.1 316.482H2272.42C2271.24 306.851 2266.88 299.068 2259.36 293.264C2251.84 287.327 2242.48 284.425 2231.4 284.425C2221.24 284.425 2212.8 286.668 2206.33 291.153C2199.87 295.638 2196.57 302.102 2196.57 310.545C2196.57 319.516 2200.4 325.716 2208.05 329.014C2215.7 332.312 2227.83 335.214 2244.32 337.589C2260.81 339.963 2274.4 342.998 2284.96 346.427C2295.51 349.857 2304.48 356.058 2312 365.16C2319.52 374.263 2323.21 387.323 2323.21 404.472C2323.21 427.558 2315.43 445.763 2299.73 458.823C2284.03 471.883 2262.79 478.479 2235.62 478.479C2208.44 478.479 2185.49 471.487 2169.13 457.768L2169.26 457.636Z" fill="#fffefe"/>
<path d="M2413.57 150V211.87H2354.07V150H2413.57ZM2355.79 247.489H2411.33V474.787H2355.79V247.489Z" fill="#fffefe"/>
<path d="M2499.73 453.813C2484.95 439.83 2477.7 420.306 2477.7 395.373V293.926H2432.97V247.491H2477.7V178.892H2533.23V247.491H2596.42V293.926H2533.23V393.13C2533.23 404.607 2536.14 413.182 2541.81 419.118C2547.48 424.923 2555.66 427.957 2566.21 427.957H2596.42V474.92H2559.88C2534.68 474.92 2514.63 467.929 2499.86 453.945L2499.73 453.813Z" fill="#fffefe"/>
<path d="M2660.27 461.725C2642.86 450.644 2629.53 436.001 2620.3 417.928C2611.07 399.855 2606.58 380.595 2606.58 360.147C2606.58 339.7 2610.8 320.175 2619.24 302.63C2627.69 285.085 2640.35 270.837 2657.11 260.02C2673.86 249.203 2694.31 243.794 2718.05 243.794C2741.8 243.794 2762.38 248.939 2779 259.36C2795.62 269.782 2807.89 283.238 2815.94 299.992C2824.12 316.614 2828.07 334.555 2828.07 353.419C2828.07 360.411 2827.81 366.875 2827.15 372.811H2660.27C2662.65 391.148 2669.24 405.659 2680.06 416.345C2690.88 427.03 2704.86 432.307 2722.01 432.307C2736.13 432.307 2747.87 429.405 2756.97 423.732C2766.2 418.06 2772.14 409.749 2774.78 398.932H2828.87C2824.91 422.941 2813.17 442.201 2793.64 456.712C2774.12 471.224 2750.24 478.347 2721.88 478.347C2698.13 478.347 2677.55 472.807 2660.14 461.593L2660.27 461.725ZM2773.06 334.95C2771.88 320.175 2766.47 308.303 2756.84 299.332C2747.21 290.361 2734.28 285.744 2718.05 285.744C2702.75 285.744 2690.35 289.966 2680.85 298.409C2671.35 306.851 2665.02 318.988 2661.72 334.95H2773.19H2773.06Z" fill="#fffefe"/>
</g>
<defs fill="#ede0e0">
<clipPath id="clip0_1_2309" fill="#ede0e0">
<rect width="2680" height="416.997" fill="#ffffff" transform="translate(160 150)"/>
</clipPath>
</defs>
</svg>